<?xml version="1.0" standalone="no"?><!DOCTYPE svg PUBLIC "-//W3C//DTD SVG 1.1//EN" "http://www.w3.org/Graphics/SVG/1.1/DTD/svg11.dtd"><svg t="1765381178216" class="icon" viewBox="0 0 1033 1024" version="1.1" xmlns="http://www.w3.org/2000/svg" p-id="10971" xmlns:xlink="http://www.w3.org/1999/xlink" width="201.7578125" height="200"><path d="M202.752 222.208c20.48 0 30.72 16.384 38.4 28.672 7.68 12.288 11.264 17.408 18.432 17.408 6.656 0 10.752-5.12 18.432-17.408 7.168-12.288 17.408-28.672 38.4-28.672 20.48 0 30.72 16.384 38.4 28.672 7.68 12.288 11.264 17.408 18.432 17.408 6.656 0 11.776 5.12 11.776 11.776s-5.12 11.776-11.776 11.776c-20.48 0-30.72-16.384-38.4-28.672-7.68-12.288-11.264-17.408-18.432-17.408-6.656 0-10.752 5.12-18.432 17.408-7.168 12.288-17.408 28.672-38.4 28.672-20.48 0-30.72-16.384-38.4-28.672C213.504 250.88 209.92 245.76 202.752 245.76s-10.752 5.632-18.432 17.408c-7.168 12.288-17.408 28.672-38.4 28.672-6.656 0-11.776-5.12-11.776-11.776s5.12-11.776 11.776-11.776c7.168 0 10.752-5.12 18.432-17.408 7.68-11.776 17.92-28.672 38.4-28.672zM924.672 276.992l-62.976-62.976c-3.072-3.072-8.192-4.096-12.8-2.56-4.096 2.048-7.168 6.144-7.168 10.752V348.16c0 4.608 3.072 8.704 7.168 10.752 4.096 2.048 9.216 1.024 12.8-2.56l62.976-62.976c2.048-2.048 3.584-5.12 3.584-8.192s-1.536-5.632-3.584-8.192zM865.28 320V250.368l34.816 34.816-34.816 34.816zM928.256 691.2l34.816-34.816h-69.632zM169.472 636.416l-50.176-49.664c-3.584-3.584-9.216-3.584-12.8 0l-49.664 49.664c-3.584 3.584-3.584 9.216 0 12.8l49.664 49.664c3.584 3.584 9.216 3.584 12.8 0l49.664-49.664c4.096-3.072 4.096-9.216 0.512-12.8z m-56.32 43.52l-36.864-36.864 36.864-36.864 36.864 36.864-36.864 36.864z" fill="#71FFF8" p-id="10972"></path><path d="M600.576 414.72c0.512-44.544 0-89.088 0.512-133.632h91.136c-0.512 7.68 1.024 15.872 2.048 23.04h-67.072V665.6c0.512 15.36-3.584 30.72-11.264 44.032-11.776 20.48-33.792 34.816-57.344 36.864-14.848 1.024-30.208-1.536-43.52-9.216-10.24-5.632-18.944-13.312-25.6-23.04 23.04 12.8 53.76 11.776 75.776-2.56 21.504-13.312 35.84-38.4 35.84-64.512-0.512-77.312-0.512-155.136-0.512-232.448z m150.528-25.6c12.8 7.68 26.624 14.336 41.472 17.408 8.704 2.048 17.408 2.56 26.624 2.56v20.48c-26.624-6.144-50.688-20.48-68.096-40.448z" fill="#25F4EE" p-id="10973"></path><path d="M437.248 502.272c32.768-20.48 72.704-28.672 110.08-23.04v21.504c-10.24 0.512-19.968 1.536-30.208 3.584-24.576 5.12-47.616 15.36-67.584 30.208-21.504 16.384-38.4 38.4-49.664 62.464-11.264 23.04-16.384 48.64-16.384 74.752 0 28.16 7.68 55.808 21.504 80.896 6.144 11.264 13.312 22.528 23.04 31.744-19.456-13.312-35.328-31.744-47.104-52.224-16.384-27.136-24.064-58.88-23.04-91.136 1.024-29.184 9.216-57.856 24.576-82.944 12.8-22.016 32.256-41.984 54.784-55.808z" fill="#25F4EE" p-id="10974"></path><path d="M627.2 304.128h67.584c2.56 12.8 7.168 25.088 12.8 36.864 9.216 17.92 23.04 34.304 39.936 45.056 1.024 1.024 2.048 1.536 2.56 2.56 17.92 19.968 41.984 34.816 68.096 40.448 0.512 23.552 0 47.616 0 71.168-44.544 0.512-89.088-13.824-125.44-39.936 0 56.832 0 113.664 0.512 169.984 0 7.68 0.512 14.848 0 23.04-2.048 27.648-10.752 54.784-24.576 78.848-11.776 20.992-28.16 39.424-47.104 53.76-24.576 18.432-55.296 28.672-86.016 29.696-15.872 0.512-31.744-0.512-47.104-4.096-21.504-4.608-41.984-13.824-60.416-26.624l-1.024-1.024c-9.216-9.216-16.384-19.968-23.04-31.744-13.312-24.576-21.504-52.224-21.504-80.896-0.512-25.6 5.12-51.712 16.384-74.752 11.264-24.576 28.16-46.592 49.664-62.464 19.968-14.848 43.52-25.088 67.584-30.208 9.728-2.048 19.968-3.072 30.208-3.584 0.512 9.216 0 17.92 0.512 26.624v46.08c-11.264-4.096-24.064-4.096-35.84-1.024-14.336 3.072-27.648 9.216-38.4 18.944-6.656 6.144-12.8 12.8-16.384 20.992-7.168 13.312-9.216 29.184-7.68 44.032 1.536 14.336 7.68 28.672 17.408 39.936 6.144 7.68 14.336 13.824 23.04 19.456 6.656 9.216 15.36 17.408 25.6 23.04 13.312 7.168 28.672 10.24 43.52 9.216 23.552-1.536 45.568-16.384 57.344-36.864 7.68-13.312 11.264-28.672 11.264-44.032 1.024-121.344 0.512-241.664 0.512-362.496z" fill="#170B1A" p-id="10975"></path><path d="M694.784 304.128c7.68 0.512 15.872 0 24.064 0 0 26.624 8.192 52.736 23.552 74.24l6.144 7.68c-17.408-10.752-31.232-26.624-39.936-45.056-6.656-11.264-11.264-23.552-13.824-36.864z m123.904 125.44c8.704 2.048 17.408 2.56 26.624 2.56v91.648c-45.056 0.512-89.6-14.336-126.464-40.96v181.76c0.512 13.824-1.024 27.648-4.096 40.96-8.704 40.96-33.28 77.824-67.072 101.888-17.92 12.8-38.4 22.016-59.904 26.624-26.112 6.144-53.248 5.632-78.848-1.024-30.208-7.68-58.88-24.576-79.872-48.128 17.92 12.8 38.4 21.504 60.416 26.624 15.36 3.584 31.232 4.096 47.104 4.096 30.72-1.024 61.44-11.264 86.016-29.696 19.456-14.336 34.816-32.768 47.104-53.76 13.824-24.064 22.528-51.2 24.576-78.848 0.512-7.68 0.512-14.848 0-23.04-0.512-56.832-0.512-113.664-0.512-169.984 36.352 26.112 80.896 39.936 125.44 39.936-0.512-23.04 0-47.104-0.512-70.656z" fill="#FE2C55" p-id="10976"></path><path d="M547.84 500.224c8.704 0 17.92 0.512 26.624 1.536v94.208c-12.8-4.096-26.624-4.608-39.936-1.536-24.576 5.632-45.568 24.576-54.272 48.64-8.704 23.552-5.12 51.2 9.728 71.168-8.704-5.12-16.384-11.264-23.04-19.456-9.216-11.264-15.872-25.088-17.408-39.936-1.536-14.848 1.024-30.72 7.68-44.032 4.096-7.68 9.728-14.848 16.384-20.992 11.264-9.216 24.576-15.36 38.4-18.944 11.776-2.56 24.576-2.56 35.84 1.024v-46.08-25.6z" fill="#FE2C55" p-id="10977"></path></svg>