<?xml version="1.0" standalone="no"?><!DOCTYPE svg PUBLIC "-//W3C//DTD SVG 1.1//EN" "http://www.w3.org/Graphics/SVG/1.1/DTD/svg11.dtd"><svg t="1765289549236" class="icon" viewBox="0 0 1024 1024" version="1.1" xmlns="http://www.w3.org/2000/svg" p-id="10166" xmlns:xlink="http://www.w3.org/1999/xlink" width="200" height="200"><path d="M478.88288 270.144c-24.224 0-43.936-21.184-43.936-47.456 0-26.208 19.712-47.36 43.936-47.36 24.256 0 44.096 21.152 44.096 47.36 0 26.272-19.84 47.456-44.096 47.456m513.376 49.056c-3.648-24.384-18.752-48.16-58.88-66.176C797.09088 191.36 528.51488 132.16 381.18688 114.56c-27.84-3.328-49.984-1.184-67.296 5.632 17.12 9.28 32.672 25.92 46.464 49.728 71.52 123.712 153.408 350.784 198.4 504.576 134.048-75.232 306.816-187.84 396.928-272.576 32.896-30.784 40.256-58.496 36.608-82.72" fill="#EC701A" p-id="10167"></path><path d="M297.09088 885.344c71.36 0 138.304-4.896 188.608-13.76 31.808-5.6 52.64-17.376 63.616-35.904 12-20.096 12.96-50.24 2.816-89.504-42.112-164.032-140.096-435.136-213.312-561.856-17.728-30.848-37.184-45.728-59.296-45.728-22.08 0-41.44 14.88-59.2 45.632C147.10688 310.976 49.05888 582.144 6.88288 746.24c-10.016 39.2-9.12 69.344 2.816 89.44 11.04 18.56 31.872 30.304 63.744 35.936 54.304 9.6 129.152 14.624 205.952 13.664l17.696 0.064" fill="#2AABCE" p-id="10168"></path><path d="M286.21088 139.168c-16.16 18.176-23.296 45.312-23.424 79.744-0.096 62.496 7.904 144.224 20.576 223.552 11.136 79.68 27.456 160.064 45.824 219.36 21.632 69.824 64.032 97.888 142.752 58.88a1688.32 1688.32 0 0 0 63.936-33.472c-47.648-164.288-132-390.432-197.12-502.976-15.872-27.584-33.152-42.336-52.544-45.056" fill="#3E94B1" p-id="10169"></path></svg>